<?xml version="1.0" encoding="UTF-8"?>
<svg version="1.1" xmlns="http://www.w3.org/2000/svg" width="673" height="224">
<path d="M0 0 C7.78068131 -0.04657067 15.56132926 -0.08199382 23.3421154 -0.10362434 C26.95599201 -0.11401178 30.56977246 -0.12807748 34.18359375 -0.15087891 C37.67844701 -0.17278889 41.17320845 -0.18460641 44.66812515 -0.18975449 C46.6343209 -0.19518715 48.60048029 -0.21077029 50.56661987 -0.22659302 C62.28325861 -0.22804318 72.07467848 0.51370704 80.91015625 8.7890625 C89.93282662 18.40558166 91.4746163 28.69099367 91.28515625 41.42578125 C90.89777781 50.90389989 86.93992054 58.51286828 80.75 65.5625 C77.41261248 68.52063894 73.84279639 70.7591634 70 73 C74.37261182 81.84988722 78.79844769 90.65272877 83.56054688 99.30102539 C86 103.78664959 86 103.78664959 86 106 C78.08 106 70.16 106 62 106 C60.04059698 102.24746183 58.08268261 98.49422018 56.12841797 94.73901367 C55.46390419 93.46317955 54.79855073 92.18778239 54.13232422 90.9128418 C53.17191172 89.07456346 52.21458317 87.23470714 51.2578125 85.39453125 C50.6817627 84.28956299 50.10571289 83.18459473 49.51220703 82.04614258 C48.21095141 79.42493393 47.08684935 76.71712338 46 74 C40.39 74 34.78 74 29 74 C30.48819406 71.02361189 31.48416509 69.23215841 33.56640625 66.8359375 C34.2944043 65.98902344 34.2944043 65.98902344 35.03710938 65.125 C35.54048828 64.5475 36.04386719 63.97 36.5625 63.375 C40.14573678 59.44179069 40.14573678 59.44179069 43 55 C35.03731975 54.49991348 35.03731975 54.49991348 27.4375 56.5 C22.00754471 62.06918491 21.54647617 68.91931484 21.48828125 76.3125 C21.47033005 77.16682617 21.45237885 78.02115234 21.43388367 78.90136719 C21.38017382 81.60086286 21.34601261 84.30018582 21.3125 87 C21.2792921 88.84247176 21.24479927 90.68492083 21.20898438 92.52734375 C21.12207668 97.01824859 21.06167449 101.50839601 21 106 C14.07 106 7.14 106 0 106 C-0.06936642 100.52262197 -0.12894761 95.0468054 -0.16479492 89.56933594 C-0.17975905 87.71121011 -0.20013773 85.85311883 -0.22631836 83.99511719 C-0.44302212 68.20548602 0.1195654 52.95165375 11.22265625 40.60546875 C18.22952721 34.27618531 25.33205934 32.84244946 34.484375 32.90234375 C35.70776581 32.90446617 35.70776581 32.90446617 36.95587158 32.90663147 C39.55395212 32.91221697 42.15194563 32.92476679 44.75 32.9375 C46.51432167 32.94251688 48.27864469 32.94707946 50.04296875 32.95117188 C54.36201256 32.96218165 58.68099154 32.97943631 63 33 C61.28680001 35.94995348 59.5720979 38.68434475 57.3359375 41.26171875 C56.85382813 41.82310547 56.37171875 42.38449219 55.875 42.96289062 C55.38 43.53201172 54.885 44.10113281 54.375 44.6875 C50.82667175 48.59201959 50.82667175 48.59201959 48 53 C57.78806362 52.83717114 57.78806362 52.83717114 66 48 C68.97579122 44.20330086 69.83716445 40.80364862 70 36 C68.81219721 30.43217444 66.48344374 26.60862545 62 23 C59.21460932 22.0807166 56.75223151 21.89675073 53.83325195 21.96923828 C52.6159716 21.99257736 52.6159716 21.99257736 51.37409973 22.01638794 C50.50427963 22.03418304 49.63445953 22.05197815 48.73828125 22.0703125 C46.87827077 22.08121765 45.01823932 22.08892791 43.15820312 22.09375 C40.23798921 22.10159016 37.32282257 22.12472623 34.40356445 22.20214844 C18.16857348 22.60427053 18.16857348 22.60427053 12.80444336 18.63598633 C10.540348 15.86009731 8.78141975 13.09972419 7 10 C5.68309521 8.4467894 4.33453666 6.91904985 2.9375 5.4375 C0 2.23356009 0 2.23356009 0 0 Z " fill="#FFFFFF" transform="translate(240,72)"/>
<path d="M0 0 C1.35334054 0.00373933 2.70668383 0.00658194 4.06002808 0.00857544 C7.58796932 0.01613965 11.11574069 0.03572425 14.64361572 0.0579834 C18.25717879 0.07859909 21.87076983 0.08761046 25.484375 0.09765625 C32.54954783 0.1189785 39.61460646 0.153025 46.6796875 0.1953125 C45.13779884 4.3257859 43.40044132 6.90583827 40.3671875 10.1328125 C37.8734702 12.80435005 35.639696 15.2559261 33.62207031 18.31396484 C32.00937692 20.24324721 31.09997581 21.08242411 28.65290833 21.73970032 C26.15597906 21.93605378 23.7189529 21.94754621 21.21484375 21.89453125 C20.30391464 21.90112259 19.39298553 21.90771393 18.45445251 21.914505 C15.5496168 21.93196459 12.64692111 21.91001804 9.7421875 21.8828125 C6.84145282 21.87149185 3.94135843 21.86889921 1.04063416 21.883255 C-0.76132342 21.89060831 -2.56342964 21.88254468 -4.36521912 21.8568573 C-9.4484281 21.85949677 -12.918638 22.36291963 -17.3203125 25.1953125 C-22.20013501 30.47079629 -22.48701402 34.76652282 -22.5234375 41.703125 C-22.53198761 42.96320877 -22.53198761 42.96320877 -22.54071045 44.24874878 C-22.55015748 46.02910098 -22.55669325 47.80947065 -22.56054688 49.58984375 C-22.57020188 52.28938198 -22.60120641 54.98814207 -22.6328125 57.6875 C-22.63934814 59.42187051 -22.6445964 61.15624643 -22.6484375 62.890625 C-22.6607843 63.68783966 -22.6731311 64.48505432 -22.68585205 65.306427 C-22.66405014 70.90344626 -21.86500401 76.14444472 -19.3203125 81.1953125 C-13.56048578 85.20214848 -7.21790575 85.35287312 -0.39453125 85.51171875 C0.35305954 85.53249985 1.10065033 85.55328094 1.87089539 85.57469177 C4.24457146 85.63975439 6.61835237 85.6988696 8.9921875 85.7578125 C10.60743245 85.80103896 12.22266703 85.84465454 13.83789062 85.88867188 C17.78505049 85.99539101 21.73231517 86.09677869 25.6796875 86.1953125 C25.42242057 84.29759059 25.14825411 82.40215573 24.8671875 80.5078125 C24.71636719 79.45207031 24.56554687 78.39632812 24.41015625 77.30859375 C23.63110693 73.98826055 22.774715 71.8835388 20.6796875 69.1953125 C17.17829649 67.25294555 14.47177159 67.10160971 10.53515625 67.1953125 C2.84139327 66.60636573 -1.03120899 61.62974865 -6.0078125 56.1953125 C-6.91208984 55.25429687 -7.81636719 54.31328125 -8.74804688 53.34375 C-15.3203125 46.44858395 -15.3203125 46.44858395 -15.3203125 45.1953125 C-10.23410606 45.095598 -5.14848258 45.02344969 -0.06152344 44.97558594 C1.66481452 44.95560965 3.39108603 44.92841878 5.1171875 44.89355469 C15.94486842 44.68051004 25.02802366 44.52998012 34.23046875 50.984375 C42.41126097 59.50981257 46.95077952 69.43342939 46.91015625 81.37109375 C46.90969803 82.02232712 46.90923981 82.67356049 46.9087677 83.3445282 C46.90577132 84.70667366 46.89796459 86.0688165 46.88549805 87.4309082 C46.86708167 89.51981645 46.86498985 91.60828411 46.86523438 93.69726562 C46.8201812 103.91432511 46.8201812 103.91432511 45.6796875 106.1953125 C42.60513068 107.22016477 40.48647475 107.32799319 37.26538086 107.34057617 C35.60236183 107.35014595 35.60236183 107.35014595 33.90574646 107.35990906 C32.70579544 107.36102188 31.50584442 107.3621347 30.26953125 107.36328125 C29.03231827 107.36660965 27.79510529 107.36993805 26.520401 107.37336731 C23.89682385 107.37843614 21.27324024 107.38077565 18.6496582 107.38061523 C14.65763766 107.38049438 10.66580327 107.400916 6.67382812 107.41992188 C4.12239678 107.42285814 1.57096412 107.42484137 -0.98046875 107.42578125 C-2.75914085 107.43655952 -2.75914085 107.43655952 -4.57374573 107.44755554 C-15.47164358 107.41790358 -24.93343182 106.69362032 -33.3203125 99.1953125 C-44.54920726 86.92341764 -44.97543887 72.43384103 -44.84179688 56.70263672 C-44.82035082 53.70067574 -44.84168542 50.70110728 -44.8671875 47.69921875 C-44.89147304 32.05544385 -43.38774132 19.21543208 -32.3203125 7.1953125 C-23.3480409 -0.75001235 -11.30571398 -0.09098398 0 0 Z " fill="#FFFFFF" transform="translate(81.3203125,71.8046875)"/>
<path d="M0 0 C1.35762988 0.00186785 2.71526044 0.00329002 4.07289124 0.00428772 C7.62547709 0.00808403 11.17802129 0.01788929 14.73059082 0.0289917 C18.36400794 0.03926824 21.99743187 0.04379865 25.63085938 0.04882812 C32.74480858 0.05951448 39.85872968 0.07655576 46.97265625 0.09765625 C45.62229584 2.88122746 44.26630079 5.11634058 42.22265625 7.4453125 C41.69671875 8.05052734 41.17078125 8.65574219 40.62890625 9.27929688 C40.08234375 9.89998047 39.53578125 10.52066406 38.97265625 11.16015625 C37.88784893 12.39975329 36.80446042 13.64059374 35.72265625 14.8828125 C35.243125 15.4281665 34.76359375 15.97352051 34.26953125 16.53540039 C32.77653882 18.27846149 32.77653882 18.27846149 30.97265625 21.09765625 C27.86489877 21.39874593 24.94633395 21.51450765 21.8359375 21.50390625 C20.46673409 21.52016052 20.46673409 21.52016052 19.06987 21.53674316 C16.1415608 21.57110364 13.21364076 21.58660808 10.28515625 21.59765625 C6.4475442 21.61226605 2.61079625 21.64608917 -1.2265625 21.69140625 C-2.10285812 21.68838501 -2.97915375 21.68536377 -3.88200378 21.68225098 C-9.34538784 21.74849581 -13.20251543 22.46854192 -18.02734375 25.09765625 C-24.00727668 32.33652243 -23.21368571 40.1945116 -23.21264648 49.11523438 C-23.21481546 51.19552623 -23.232948 53.27527173 -23.25195312 55.35546875 C-23.39751693 68.65215632 -23.39751693 68.65215632 -19.46484375 81.16015625 C-11.98381662 87.10661371 0.38787491 85.54075278 9.53515625 85.72265625 C11.13218108 85.76090834 12.72918686 85.79996407 14.32617188 85.83984375 C18.20817576 85.93505306 22.09027581 86.01936577 25.97265625 86.09765625 C25.57338281 84.03171867 25.15244902 81.96996098 24.72265625 79.91015625 C24.490625 78.76160156 24.25859375 77.61304688 24.01953125 76.4296875 C22.88795175 72.82805573 21.59267861 70.79155142 18.97265625 68.09765625 C16.13920026 66.96130781 16.13920026 66.96130781 13.6953125 67.16796875 C7.2049571 67.3013975 3.48853237 65.53059846 -1.15234375 61.09765625 C-2.65917742 59.61401966 -4.13900997 58.11124184 -5.60058594 56.58300781 C-7.77094346 54.32351856 -10.03419324 52.1595522 -12.27734375 49.97265625 C-13.55060338 48.70391172 -14.80968814 47.41985805 -16.02734375 46.09765625 C-16.02734375 45.76765625 -16.02734375 45.43765625 -16.02734375 45.09765625 C-10.78040987 44.9981012 -5.53403678 44.92586665 -0.28637695 44.87792969 C1.49529611 44.8579272 3.27690448 44.83071602 5.05834961 44.79589844 C17.19305616 44.5648259 26.99517861 44.57341957 36.34375 53.29296875 C46.34880965 64.37771109 47.21109401 77.5376976 47.28515625 91.78515625 C47.2907959 92.84943848 47.29643555 93.9137207 47.30224609 95.01025391 C47.22917081 102.71288441 47.22917081 102.71288441 44.97265625 106.09765625 C41.89377333 107.12395056 39.76854394 107.23035636 36.54248047 107.24291992 C35.43057343 107.24929977 34.31866638 107.25567963 33.17306519 107.26225281 C31.96997711 107.26336563 30.76688904 107.26447845 29.52734375 107.265625 C27.66796677 107.2706176 27.66796677 107.2706176 25.77102661 107.27571106 C23.14325329 107.28077952 20.51547352 107.28311941 17.88769531 107.28295898 C15.20500927 107.2828779 12.52249462 107.28978774 9.83984375 107.3034668 C5.96479095 107.32185801 2.08993595 107.32669915 -1.78515625 107.328125 C-3.57157028 107.33890327 -3.57157028 107.33890327 -5.39407349 107.34989929 C-16.46311597 107.31978367 -25.6203442 106.0862395 -33.94140625 98.30859375 C-40.31952407 91.4962211 -44.09748682 83.51463958 -44.2043457 74.13647461 C-44.21718094 73.15122299 -44.23001617 72.16597137 -44.24324036 71.15086365 C-44.25062729 70.09045364 -44.25801422 69.03004364 -44.265625 67.9375 C-44.27369675 66.83724991 -44.28176849 65.73699982 -44.29008484 64.60340881 C-44.30391315 62.27248707 -44.3146409 59.94154518 -44.32250977 57.6105957 C-44.33400529 55.23944113 -44.35441823 52.86831194 -44.3840332 50.49731445 C-44.42695402 47.06053176 -44.44291555 43.62451833 -44.453125 40.1875 C-44.47938713 38.61813942 -44.47938713 38.61813942 -44.50617981 37.01707458 C-44.47236383 25.37372602 -40.72969146 15.90667262 -32.5546875 7.6015625 C-23.12669975 -0.87105582 -11.84057365 -0.04707589 0 0 Z " fill="#FFFFFF" transform="translate(485.02734375,71.90234375)"/>
<path d="M0 0 C8.45102943 4.27529386 14.8768168 10.54799165 18.4375 19.375 C21.53158943 29.04402946 20.43292165 38.12185233 15.91015625 47.18359375 C14.98695116 48.81645116 14.00035241 50.41323411 13 52 C13.50660156 52.72703125 13.50660156 52.72703125 14.0234375 53.46875 C19.17381104 61.20919578 21.08707486 68.68418127 20 78 C17.65125219 88.08414478 12.2718417 95.3390672 3.68359375 101.0390625 C-4.82861672 105.89753994 -14.92037387 105.137231 -24.37109375 105.09765625 C-25.64855972 105.0962413 -26.9260257 105.09482635 -28.24220276 105.09336853 C-31.61724746 105.08873516 -34.99222297 105.07977023 -38.36724854 105.06866455 C-41.81969611 105.05838426 -45.27215087 105.05385681 -48.72460938 105.04882812 C-55.48309185 105.03782466 -62.24154193 105.02110567 -69 105 C-64.53973987 95.94428448 -58.26335007 87.46017927 -49 83 C-38.75234553 80.70517083 -27.37865959 81.86660692 -17.01342773 82.88044739 C-12.12361841 83.28107625 -9.13811811 82.64043588 -5 80 C-2.36495743 76.93995056 -1.99117349 75.50311118 -2.0625 71.4375 C-3.07563312 67.72267858 -4.016553 66.35059461 -7 64 C-9.26038854 62.86980573 -10.57118826 62.84731043 -13.08251953 62.79467773 C-13.92324005 62.77473251 -14.76396057 62.75478729 -15.63015747 62.73423767 C-16.53853363 62.71752518 -17.44690979 62.70081268 -18.3828125 62.68359375 C-19.31221649 62.66281265 -20.24162048 62.64203156 -21.19918823 62.62062073 C-24.1743821 62.55512354 -27.14966577 62.49623948 -30.125 62.4375 C-32.13933228 62.39431494 -34.15365541 62.35070066 -36.16796875 62.30664062 C-41.11188663 62.19944197 -46.05589503 62.09817499 -51 62 C-50.33336447 60.33332088 -49.6666922 58.66665645 -49 57 C-48.74371826 56.33323242 -48.48743652 55.66646484 -48.22338867 54.97949219 C-45.90906475 49.42623722 -43.18191735 44.29183066 -38 41 C-29.54453633 38.973359 -20.66795397 39.59605295 -12.05517578 40.1784668 C-8.52939979 39.97251009 -6.81747571 39.07608449 -4 37 C-1.88845129 34.40855385 -1.8649828 32.22611429 -2.0625 29 C-2.56952584 25.71960389 -2.93105339 25.070761 -5.375 22.5625 C-9.31272584 20.21861557 -12.16341746 19.87671023 -16.66479492 19.88647461 C-18.40626045 19.88658791 -18.40626045 19.88658791 -20.1829071 19.88670349 C-21.43610245 19.89186478 -22.68929779 19.89702606 -23.98046875 19.90234375 C-25.26359451 19.9037587 -26.54672028 19.90517365 -27.86872864 19.90663147 C-31.27670241 19.91044595 -34.68463343 19.92026709 -38.09259033 19.93133545 C-41.57148663 19.94157257 -45.05038985 19.94613402 -48.52929688 19.95117188 C-55.35288212 19.96189033 -62.17643901 19.97895391 -69 20 C-55.7846077 -6.83135728 -26.30314621 -7.70879392 0 0 Z " fill="#FFFFFF" transform="translate(610,74)"/>
<path d="M0 0 C4.86309538 4.91369521 6.87083143 10.10811777 9.14453125 16.5625 C9.52462845 17.60825195 9.90472565 18.65400391 10.29634094 19.73144531 C11.11439621 21.98283342 11.92759074 24.23599253 12.73638916 26.49072266 C14.43696442 31.21352975 16.17976854 35.92030516 17.92184448 40.62792969 C20.18601989 46.74865512 22.4355213 52.87477895 24.6875 59 C26.50321661 63.93775384 28.31983322 68.87517616 30.13671875 73.8125 C30.56419403 74.97539551 30.99166931 76.13829102 31.43209839 77.33642578 C33.26273373 82.31079458 35.09942191 87.28217312 36.97900391 92.23828125 C37.26564407 92.99455811 37.55228424 93.75083496 37.84761047 94.5300293 C38.57834526 96.45100816 39.31395536 98.37013063 40.05004883 100.2890625 C41 103 41 103 41 105 C33.41 105 25.82 105 18 105 C16.02 100.05 14.04 95.1 12 90 C0.12 89.67 -11.76 89.34 -24 89 C-24.99 92.3 -25.98 95.6 -27 99 C-27.99 100.98 -28.98 102.96 -30 105 C-37.26 105 -44.52 105 -52 105 C-49.7500434 94.87519531 -49.7500434 94.87519531 -48.34277344 91.08325195 C-48.02724014 90.22424286 -47.71170685 89.36523376 -47.38661194 88.48019409 C-47.04762375 87.57536285 -46.70863556 86.67053162 -46.359375 85.73828125 C-46.00036606 84.76545197 -45.64135712 83.79262268 -45.27146912 82.79031372 C-44.10332447 79.62890625 -42.92697636 76.47062898 -41.75 73.3125 C-40.93744645 71.12199692 -40.12535771 68.93132137 -39.3137207 66.74047852 C-38.0788957 63.40764049 -36.84358934 60.07498953 -35.60591125 56.74320984 C-32.99420618 49.7078295 -30.4186893 42.66038478 -27.87109375 35.6015625 C-26.93736711 33.02521806 -26.00292787 30.4491333 -25.0682373 27.87313843 C-24.48697981 26.2656976 -23.90870871 24.65717334 -23.33361816 23.04751587 C-16.23098073 3.18309508 -16.23098073 3.18309508 -10.6875 -0.5625 C-6.98650473 -1.1649876 -3.47226209 -1.47308089 0 0 Z M-6 41 C-8.65973298 46.72865565 -11.02051344 52.53101455 -13.25 58.4375 C-13.52021973 59.14777344 -13.79043945 59.85804688 -14.06884766 60.58984375 C-15.50242045 64.195746 -15.50242045 64.195746 -16 68 C-9.4 68 -2.8 68 4 68 C3.28865192 63.73191153 2.66588373 60.71227246 1.15234375 56.8203125 C0.79462891 55.8921875 0.43691406 54.9640625 0.06835938 54.0078125 C-0.49141602 52.58082031 -0.49141602 52.58082031 -1.0625 51.125 C-1.43955078 50.15046875 -1.81660156 49.1759375 -2.20507812 48.171875 C-3.13164376 45.77922451 -4.06340791 43.38873946 -5 41 C-5.33 41 -5.66 41 -6 41 Z " fill="#FFFFFF" transform="translate(392,74)"/>
<path d="M0 0 C4.86309538 4.91369521 6.87083143 10.10811777 9.14453125 16.5625 C9.52462845 17.60825195 9.90472565 18.65400391 10.29634094 19.73144531 C11.11439621 21.98283342 11.92759074 24.23599253 12.73638916 26.49072266 C14.43696442 31.21352975 16.17976854 35.92030516 17.92184448 40.62792969 C20.18601989 46.74865512 22.4355213 52.87477895 24.6875 59 C26.50321661 63.93775384 28.31983322 68.87517616 30.13671875 73.8125 C30.56419403 74.97539551 30.99166931 76.13829102 31.43209839 77.33642578 C33.26273373 82.31079458 35.09942191 87.28217312 36.97900391 92.23828125 C37.26564407 92.99455811 37.55228424 93.75083496 37.84761047 94.5300293 C38.57834526 96.45100816 39.31395536 98.37013063 40.05004883 100.2890625 C41 103 41 103 41 105 C33.41 105 25.82 105 18 105 C16.02 100.05 14.04 95.1 12 90 C0.12 89.67 -11.76 89.34 -24 89 C-24.99 92.3 -25.98 95.6 -27 99 C-27.99 100.98 -28.98 102.96 -30 105 C-37.26 105 -44.52 105 -52 105 C-49.7500434 94.87519531 -49.7500434 94.87519531 -48.34277344 91.08325195 C-48.02724014 90.22424286 -47.71170685 89.36523376 -47.38661194 88.48019409 C-47.04762375 87.57536285 -46.70863556 86.67053162 -46.359375 85.73828125 C-46.00036606 84.76545197 -45.64135712 83.79262268 -45.27146912 82.79031372 C-44.10332447 79.62890625 -42.92697636 76.47062898 -41.75 73.3125 C-40.93744645 71.12199692 -40.12535771 68.93132137 -39.3137207 66.74047852 C-38.0788957 63.40764049 -36.84358934 60.07498953 -35.60591125 56.74320984 C-32.99420618 49.7078295 -30.4186893 42.66038478 -27.87109375 35.6015625 C-26.93736711 33.02521806 -26.00292787 30.4491333 -25.0682373 27.87313843 C-24.48697981 26.2656976 -23.90870871 24.65717334 -23.33361816 23.04751587 C-16.23098073 3.18309508 -16.23098073 3.18309508 -10.6875 -0.5625 C-6.98650473 -1.1649876 -3.47226209 -1.47308089 0 0 Z M-6 41 C-8.65973298 46.72865565 -11.02051344 52.53101455 -13.25 58.4375 C-13.52021973 59.14777344 -13.79043945 59.85804688 -14.06884766 60.58984375 C-15.50242045 64.195746 -15.50242045 64.195746 -16 68 C-9.4 68 -2.8 68 4 68 C3.28865192 63.73191153 2.66588373 60.71227246 1.15234375 56.8203125 C0.79462891 55.8921875 0.43691406 54.9640625 0.06835938 54.0078125 C-0.49141602 52.58082031 -0.49141602 52.58082031 -1.0625 51.125 C-1.43955078 50.15046875 -1.81660156 49.1759375 -2.20507812 48.171875 C-3.13164376 45.77922451 -4.06340791 43.38873946 -5 41 C-5.33 41 -5.66 41 -6 41 Z " fill="#FFFFFF" transform="translate(189,74)"/>
<path d="M0 0 C1.29180738 3.87542214 0.41918019 5.18078273 -1.0546875 8.9453125 C-1.50457031 10.10417969 -1.95445312 11.26304688 -2.41796875 12.45703125 C-3.13919922 14.27267578 -3.13919922 14.27267578 -3.875 16.125 C-4.34808594 17.34316406 -4.82117188 18.56132813 -5.30859375 19.81640625 C-8.83928571 28.83928571 -8.83928571 28.83928571 -10 30 C-11.66617115 30.04063832 -13.33388095 30.042721 -15 30 C-16.485 26.535 -16.485 26.535 -18 23 C-19.54571278 25.31856917 -20.79618552 27.50638429 -22 30 C-23.65 30 -25.3 30 -27 30 C-29.86748074 23.76012076 -32.40440576 17.4529009 -34.75 11 C-35.06582031 10.14277344 -35.38164062 9.28554688 -35.70703125 8.40234375 C-38 2.13886634 -38 2.13886634 -38 1 C-35.69 1 -33.38 1 -31 1 C-30.18618205 2.93694678 -29.37399084 4.87457711 -28.5625 6.8125 C-27.88380859 8.43091797 -27.88380859 8.43091797 -27.19140625 10.08203125 C-26.39624987 12.0295126 -25.66520352 14.00438943 -25 16 C-24.66226562 15.15695313 -24.32453125 14.31390625 -23.9765625 13.4453125 C-23.53054688 12.34960938 -23.08453125 11.25390625 -22.625 10.125 C-22.18414062 9.03445312 -21.74328125 7.94390625 -21.2890625 6.8203125 C-20 4 -20 4 -18 2 C-17.65066406 2.84304687 -17.30132812 3.68609375 -16.94140625 4.5546875 C-16.25884766 6.19824219 -16.25884766 6.19824219 -15.5625 7.875 C-15.11003906 8.96554688 -14.65757812 10.05609375 -14.19140625 11.1796875 C-13.50456537 12.80558624 -12.78934113 14.42131774 -12 16 C-11.63648438 14.92878906 -11.27296875 13.85757813 -10.8984375 12.75390625 C-10.39192246 11.35629993 -9.88403817 9.95918932 -9.375 8.5625 C-9.13910156 7.85544922 -8.90320313 7.14839844 -8.66015625 6.41992188 C-7.8984375 4.37890625 -7.8984375 4.37890625 -6 1 C-2.7890625 0.02734375 -2.7890625 0.02734375 0 0 Z " fill="#FFFFFF" transform="translate(485,32)"/>
<path d="M0 0 C2.79450444 1.77832101 3.64004263 3.30422181 5.0625 6.3125 C5.48868714 9.15627798 5.48212338 11.94172933 5.4375 14.8125 C5.44910156 15.55886719 5.46070313 16.30523437 5.47265625 17.07421875 C5.44847774 21.62783753 4.98266221 24.60887963 2.0625 28.3125 C-1.06928854 29.87839427 -4.37650246 29.62060447 -7.8125 29.6875 C-8.53308594 29.72488281 -9.25367188 29.76226562 -9.99609375 29.80078125 C-13.82108718 29.86417893 -15.53912278 29.68287627 -18.3828125 27.0390625 C-21.78683684 21.06919067 -21.96622328 13.80810173 -20.44140625 7.14453125 C-19.38201341 4.3374395 -18.05434341 2.42226199 -15.875 0.375 C-10.65122979 -1.5144488 -5.36777591 -1.25628798 0 0 Z M-12.9375 6.3125 C-14.3616906 9.16088121 -14.10745508 11.64037908 -14.125 14.8125 C-14.13917969 15.9778125 -14.15335937 17.143125 -14.16796875 18.34375 C-14.25193714 21.43156718 -14.25193714 21.43156718 -11.9375 23.3125 C-9.7976368 23.630884 -9.7976368 23.630884 -7.4375 23.5625 C-6.24640625 23.57023437 -6.24640625 23.57023437 -5.03125 23.578125 C-2.71857249 23.50189909 -2.71857249 23.50189909 -0.9375 21.3125 C-0.61722695 18.25430773 -0.61722695 18.25430773 -0.6875 14.8125 C-0.67976563 13.06453125 -0.67976563 13.06453125 -0.671875 11.28125 C-0.62824227 8.19423935 -0.62824227 8.19423935 -2.9375 6.3125 C-5.37762949 6.06962511 -5.37762949 6.06962511 -8.0625 6.1875 C-8.97257812 6.20554687 -9.88265625 6.22359375 -10.8203125 6.2421875 C-11.51898438 6.26539063 -12.21765625 6.28859375 -12.9375 6.3125 Z " fill="#FFFFFF" transform="translate(377.9375,32.6875)"/>
<path d="M0 0 C0.83595703 0.01353516 1.67191406 0.02707031 2.53320312 0.04101562 C4.58491498 0.07618783 6.63629275 0.12998952 8.6875 0.1875 C7.48368552 2.68111571 6.23321278 4.86893083 4.6875 7.1875 C1.4296875 7.69921875 1.4296875 7.69921875 -2.4375 7.875 C-4.35949219 7.97361328 -4.35949219 7.97361328 -6.3203125 8.07421875 C-7.30773437 8.11160156 -8.29515625 8.14898437 -9.3125 8.1875 C-9.6425 9.5075 -9.9725 10.8275 -10.3125 12.1875 C-6.6825 12.1875 -3.0525 12.1875 0.6875 12.1875 C-0.83456009 14.81651288 -2.15615964 17.03115964 -4.3125 19.1875 C-7.4375 19.3125 -7.4375 19.3125 -10.3125 19.1875 C-10.3125 22.8175 -10.3125 26.4475 -10.3125 30.1875 C-12.6225 30.1875 -14.9325 30.1875 -17.3125 30.1875 C-17.39991124 26.62515572 -17.45302896 23.06308892 -17.5 19.5 C-17.52513672 18.49259766 -17.55027344 17.48519531 -17.57617188 16.44726562 C-17.6708874 6.88099764 -17.6708874 6.88099764 -14.3125 3.1875 C-9.91235453 -0.57588973 -5.48996609 -0.1689887 0 0 Z " fill="#FFFFFF" transform="translate(195.3125,31.8125)"/>
<path d="M0 0 C2.31 0 4.62 0 7 0 C7.02505615 0.6612085 7.0501123 1.32241699 7.07592773 2.00366211 C7.19153102 4.98182305 7.31441754 7.9596392 7.4375 10.9375 C7.47681641 11.97841797 7.51613281 13.01933594 7.55664062 14.09179688 C7.59853516 15.08115234 7.64042969 16.07050781 7.68359375 17.08984375 C7.72025146 18.00628662 7.75690918 18.92272949 7.79467773 19.86694336 C7.77003864 21.9820728 7.77003864 21.9820728 9 23 C12.26725831 23.12303483 15.53144882 23.19019702 18.80078125 23.23046875 C22 24 22 24 24.41796875 27.05078125 C24.94003906 28.02402344 25.46210938 28.99726562 26 30 C22.58378212 30.14539953 19.16836009 30.23409725 15.75 30.3125 C14.78191406 30.35439453 13.81382812 30.39628906 12.81640625 30.43945312 C5.63034882 30.56335067 5.63034882 30.56335067 2.390625 27.66796875 C0.41222405 23.87232873 -0.12206011 21.11639989 -0.09765625 16.89453125 C-0.09443359 15.91162109 -0.09121094 14.92871094 -0.08789062 13.91601562 C-0.07951172 12.89185547 -0.07113281 11.86769531 -0.0625 10.8125 C-0.05798828 9.77673828 -0.05347656 8.74097656 -0.04882812 7.67382812 C-0.0370401 5.11582734 -0.02058515 2.55794267 0 0 Z " fill="#FFFFFF" transform="translate(268,32)"/>
</svg>
